<svg width="32" height="32" viewBox="0 0 32 32" fill="none" xmlns="http://www.w3.org/2000/svg">
<path fill-rule="evenodd" clip-rule="evenodd" d="M10.254 2.06959C11.7771 1.99947 12.2628 1.98389 16.1426 1.98389C20.0224 1.98389 20.508 2.00077 22.0298 2.06959C23.5516 2.1384 24.5904 2.38122 25.4993 2.7331C26.4511 3.09278 27.3146 3.65501 28.0287 4.38215C28.7559 5.09501 29.3168 5.95719 29.6752 6.91027C30.0284 7.8192 30.2699 8.85797 30.34 10.3772C30.4101 11.9029 30.4257 12.3885 30.4257 16.267C30.4257 20.1468 30.4088 20.6325 30.34 22.1556C30.2712 23.6748 30.0284 24.7135 29.6752 25.6225C29.3168 26.5757 28.7549 27.4393 28.0287 28.1532C27.3146 28.8803 26.4511 29.4413 25.4993 29.7996C24.5904 30.1528 23.5516 30.3943 22.0324 30.4645C20.508 30.5346 20.0224 30.5502 16.1426 30.5502C12.2628 30.5502 11.7771 30.5333 10.254 30.4645C8.73482 30.3956 7.69604 30.1528 6.78712 29.7996C5.83394 29.4412 4.97033 28.8794 4.25641 28.1532C3.52976 27.4399 2.96744 26.5767 2.60865 25.6238C2.25677 24.7148 2.01525 23.6761 1.94513 22.1569C1.87502 20.6312 1.85944 20.1455 1.85944 16.267C1.85944 12.3872 1.87632 11.9016 1.94513 10.3798C2.01395 8.85797 2.25677 7.8192 2.60865 6.91027C2.96797 5.9573 3.53072 5.09412 4.2577 4.38086C4.97061 3.65437 5.83336 3.09205 6.78582 2.7331C7.69475 2.38122 8.73352 2.1397 10.2527 2.06959H10.254ZM21.9143 4.64055C20.408 4.57173 19.9562 4.55745 16.1426 4.55745C12.329 4.55745 11.8771 4.57173 10.3709 4.64055C8.97763 4.70417 8.22192 4.9366 7.71812 5.13267C7.052 5.39236 6.57547 5.7001 6.07556 6.20001C5.60168 6.66103 5.23698 7.22227 5.00822 7.84257C4.81215 8.34637 4.57972 9.10208 4.5161 10.4953C4.44728 12.0016 4.433 12.4534 4.433 16.267C4.433 20.0806 4.44728 20.5325 4.5161 22.0387C4.57972 23.432 4.81215 24.1877 5.00822 24.6915C5.23675 25.3108 5.60162 25.8731 6.07556 26.334C6.53651 26.808 7.09875 27.1728 7.71812 27.4014C8.22192 27.5974 8.97763 27.8299 10.3709 27.8935C11.8771 27.9623 12.3277 27.9766 16.1426 27.9766C19.9575 27.9766 20.408 27.9623 21.9143 27.8935C23.3075 27.8299 24.0632 27.5974 24.567 27.4014C25.2331 27.1417 25.7097 26.8339 26.2096 26.334C26.6835 25.8731 27.0484 25.3108 27.2769 24.6915C27.473 24.1877 27.7054 23.432 27.769 22.0387C27.8379 20.5325 27.8521 20.0806 27.8521 16.267C27.8521 12.4534 27.8379 12.0016 27.769 10.4953C27.7054 9.10208 27.473 8.34637 27.2769 7.84257C27.0172 7.17646 26.7095 6.69992 26.2096 6.20001C25.7485 5.72616 25.1873 5.36147 24.567 5.13267C24.0632 4.9366 23.3075 4.70417 21.9143 4.64055V4.64055ZM14.3182 20.6701C15.3371 21.0942 16.4716 21.1515 17.5279 20.8321C18.5843 20.5127 19.497 19.8364 20.1102 18.9188C20.7233 18.0012 20.9989 16.8992 20.8898 15.801C20.7807 14.7028 20.2938 13.6765 19.5121 12.8975C19.0138 12.3995 18.4113 12.0182 17.7479 11.781C17.0845 11.5438 16.3769 11.4567 15.6758 11.5258C14.9747 11.595 14.2976 11.8187 13.6934 12.1809C13.0892 12.5431 12.5728 13.0348 12.1813 13.6206C11.7899 14.2063 11.5333 14.8715 11.4298 15.5684C11.3264 16.2652 11.3787 16.9764 11.5831 17.6506C11.7874 18.3248 12.1387 18.9453 12.6117 19.4674C13.0846 19.9895 13.6675 20.4003 14.3182 20.6701ZM10.9513 11.0758C11.633 10.394 12.4424 9.85325 13.3331 9.4843C14.2238 9.11535 15.1785 8.92546 16.1426 8.92546C17.1067 8.92546 18.0613 9.11535 18.9521 9.4843C19.8428 9.85325 20.6521 10.394 21.3338 11.0758C22.0156 11.7575 22.5563 12.5668 22.9253 13.4575C23.2942 14.3482 23.4841 15.3029 23.4841 16.267C23.4841 17.2311 23.2942 18.1858 22.9253 19.0765C22.5563 19.9672 22.0156 20.7766 21.3338 21.4583C19.957 22.8351 18.0897 23.6086 16.1426 23.6086C14.1955 23.6086 12.3281 22.8351 10.9513 21.4583C9.57449 20.0815 8.80101 18.2141 8.80101 16.267C8.80101 14.3199 9.57449 12.4526 10.9513 11.0758V11.0758ZM25.1124 10.0188C25.2813 9.85944 25.4166 9.6678 25.5101 9.45523C25.6036 9.24266 25.6536 9.01349 25.657 8.78127C25.6604 8.54905 25.6171 8.31852 25.5298 8.10331C25.4425 7.88811 25.3129 7.69261 25.1487 7.52839C24.9845 7.36417 24.789 7.23457 24.5738 7.14726C24.3586 7.05995 24.128 7.01671 23.8958 7.0201C23.6636 7.02348 23.4344 7.07343 23.2218 7.16697C23.0093 7.26052 22.8176 7.39576 22.6583 7.5647C22.3483 7.89325 22.1787 8.32965 22.1852 8.78127C22.1918 9.23289 22.3742 9.66416 22.6935 9.98354C23.0129 10.3029 23.4442 10.4852 23.8958 10.4918C24.3474 10.4984 24.7838 10.3287 25.1124 10.0188V10.0188Z" fill="#010101"/>
</svg>
