<svg width="32" height="32" viewBox="0 0 32 32" fill="none" xmlns="http://www.w3.org/2000/svg">
<g clip-path="url(#clip0_201_954)">
<path d="M31.1888 7.09595C30.1046 7.57638 28.9399 7.901 27.7154 8.04772C28.9788 7.29175 29.924 6.10193 30.3747 4.70028C29.1877 5.40533 27.8885 5.90161 26.5338 6.16754C25.6228 5.19482 24.4161 4.55008 23.1011 4.33342C21.7861 4.11677 20.4363 4.34033 19.2614 4.96939C18.0865 5.59844 17.1521 6.59781 16.6033 7.81232C16.0546 9.02683 15.9221 10.3885 16.2266 11.686C13.8214 11.5653 11.4685 10.9401 9.32057 9.85117C7.17264 8.76222 5.27769 7.23379 3.75869 5.36509C3.2393 6.26103 2.94065 7.29981 2.94065 8.4061C2.94007 9.40202 3.18533 10.3827 3.65465 11.2611C4.12398 12.1395 4.80286 12.8885 5.63108 13.4416C4.67057 13.411 3.73125 13.1515 2.89131 12.6845V12.7625C2.89121 14.1593 3.37438 15.5131 4.25883 16.5942C5.14328 17.6754 6.37454 18.4172 7.74368 18.6939C6.85265 18.935 5.91847 18.9705 5.01171 18.7977C5.398 19.9996 6.15046 21.0506 7.16374 21.8036C8.17703 22.5566 9.40042 22.9738 10.6626 22.997C8.51995 24.679 5.87374 25.5914 3.14971 25.5874C2.66717 25.5875 2.18504 25.5594 1.70581 25.503C4.47086 27.2808 7.68959 28.2244 10.9769 28.2207C22.1047 28.2207 28.188 19.0042 28.188 11.0108C28.188 10.7511 28.1815 10.4888 28.1699 10.2291C29.3531 9.37342 30.3745 8.31377 31.1862 7.09984L31.1888 7.09595V7.09595Z" fill="#010101"/>
</g>
<defs>
<clipPath id="clip0_201_954">
<rect width="31.1632" height="31.1632" fill="white" transform="translate(0.489136 0.685425)"/>
</clipPath>
</defs>
</svg>
